<?xml version="1.0" standalone="no"?>
<!DOCTYPE svg PUBLIC "-//W3C//DTD SVG 20010904//EN"
 "http://www.w3.org/TR/2001/REC-SVG-20010904/DTD/svg10.dtd">
<svg version="1.0" xmlns="http://www.w3.org/2000/svg"
 width="3264.000000pt" height="3264.000000pt" viewBox="0 0 3264.000000 3264.000000"
 preserveAspectRatio="xMidYMid meet">

<g transform="translate(0.000000,3264.000000) scale(0.100000,-0.100000)"
fill="#000000" stroke="none">
<path d="M4673 28658 c-4 -7 -474 -945 -1045 -2085 l-1038 -2071 0 -311 0
-311 518 -2 517 -3 5 -8855 5 -8855 1357 -3 1358 -2 2 8857 3 8858 520 5 520
5 3 300 3 300 -1048 2092 -1048 2093 -312 0 c-239 0 -314 -3 -320 -12z m1331
-2295 c552 -1105 1023 -2044 1045 -2088 23 -44 41 -85 41 -92 0 -10 -108 -13
-522 -15 l-523 -3 -3 -8852 -2 -8853 -1055 0 -1055 0 0 8855 0 8855 -518 0
c-285 0 -521 3 -525 6 -5 5 2051 4124 2087 4183 4 6 11 11 16 11 5 0 461 -903
1014 -2007z"/>
<path d="M12045 17414 c-269 -48 -514 -169 -658 -324 -35 -38 -85 -109 -114
-161 -98 -178 -221 -513 -318 -864 -201 -736 -2277 -7667 -2515 -8401 -85
-260 -96 -383 -54 -593 35 -173 131 -348 263 -481 214 -215 493 -330 801 -330
402 1 667 167 929 584 90 143 102 171 169 386 187 598 381 1310 742 2715 527
2054 716 2766 906 3408 35 120 64 221 65 225 2 21 251 -741 433 -1327 419
-1345 1011 -3382 1067 -3671 74 -378 91 -455 123 -547 133 -392 387 -617 779
-690 111 -21 421 -24 537 -5 361 59 619 232 758 509 52 101 71 192 87 394 19
244 39 332 144 627 248 695 469 1412 796 2582 326 1168 586 2064 605 2084 5 4
23 -36 40 -90 17 -55 69 -216 115 -359 460 -1431 1342 -4448 1621 -5544 97
-381 172 -571 301 -764 181 -272 409 -428 723 -494 119 -25 392 -25 510 0 188
41 325 112 451 237 135 134 215 289 260 501 17 82 22 139 22 269 0 234 -28
367 -137 665 -31 83 -158 474 -282 870 -1129 3596 -1801 5676 -2220 6870 -189
537 -411 1120 -476 1248 -67 133 -169 255 -272 326 -275 189 -807 215 -1142
56 -232 -111 -394 -285 -533 -576 -73 -151 -97 -216 -211 -574 -150 -471 -227
-745 -485 -1715 -316 -1188 -489 -1806 -727 -2595 -66 -220 -127 -424 -136
-453 -8 -29 -18 -49 -22 -45 -4 4 -335 1048 -734 2318 -400 1271 -761 2416
-802 2545 -162 503 -286 745 -472 922 -115 109 -255 190 -403 234 -141 42
-384 55 -534 28z m430 -318 c210 -56 377 -213 499 -470 94 -198 35 -16 1106
-3416 818 -2599 897 -2849 909 -2863 4 -4 32 73 63 170 31 98 104 331 163 518
316 1004 586 1946 950 3320 261 985 322 1200 481 1706 133 425 193 575 288
718 70 105 188 212 288 260 122 59 182 72 353 78 237 8 376 -23 501 -113 124
-87 160 -158 381 -744 368 -974 1201 -3525 2358 -7225 190 -609 281 -886 413
-1265 69 -199 92 -316 92 -477 -1 -448 -212 -696 -615 -720 -339 -19 -611 112
-788 379 -105 159 -157 289 -227 563 -244 958 -1021 3648 -1466 5075 -224 716
-615 1904 -633 1923 -7 7 -196 -545 -300 -878 -131 -419 -317 -1062 -536
-1850 -383 -1376 -527 -1848 -894 -2915 -84 -244 -108 -356 -121 -567 -6 -87
-17 -187 -26 -223 -64 -269 -318 -428 -714 -447 -231 -11 -423 30 -557 119
-173 116 -266 294 -328 623 -14 77 -37 196 -50 265 -54 280 -693 2476 -1107
3800 -296 950 -690 2112 -709 2093 -14 -15 -189 -552 -298 -913 -226 -752
-412 -1448 -936 -3490 -375 -1461 -549 -2103 -745 -2740 -86 -281 -99 -308
-226 -490 -170 -244 -367 -343 -649 -327 -393 23 -691 300 -721 669 -9 115 -3
143 130 558 233 731 878 2877 2045 6805 191 644 365 1235 386 1315 21 80 65
228 97 330 117 362 206 559 293 644 95 93 278 179 450 212 90 17 318 11 400
-10z"/>
<path d="M26240 15170 c-1340 -87 -2469 -665 -3221 -1650 -538 -705 -845
-1568 -914 -2567 -12 -171 -6 -603 10 -766 74 -759 331 -1495 740 -2117 770
-1171 1969 -1809 3403 -1810 481 0 990 69 1432 194 591 167 1162 450 1644 814
686 518 967 932 943 1385 -17 312 -140 569 -354 736 -187 147 -367 205 -628
206 -143 0 -154 -2 -245 -33 -129 -45 -261 -119 -384 -219 -122 -97 -190 -169
-298 -315 -148 -201 -360 -350 -687 -483 -378 -153 -783 -233 -1288 -251 -546
-20 -992 107 -1383 394 -98 73 -271 246 -347 347 -100 135 -253 410 -253 457
0 18 423 111 2130 468 1221 256 1669 353 2235 486 866 203 966 235 1173 374
209 140 361 340 428 567 35 116 44 331 20 473 -34 207 -106 389 -211 532 -50
69 -60 92 -90 200 -309 1128 -1146 2006 -2271 2383 -243 81 -592 156 -869 185
-139 15 -553 20 -715 10z m730 -325 c682 -78 1313 -340 1802 -749 336 -282
600 -618 793 -1010 105 -213 166 -375 230 -609 37 -133 49 -164 77 -195 139
-154 218 -371 220 -607 1 -131 -14 -201 -67 -310 -52 -108 -131 -199 -237
-272 -159 -110 -248 -142 -701 -253 -703 -172 -1262 -296 -2582 -570 -1377
-287 -2486 -527 -2502 -544 -15 -14 110 -357 186 -511 124 -250 243 -416 433
-601 352 -344 801 -551 1333 -615 135 -17 518 -17 705 0 760 67 1418 311 1799
666 35 33 101 110 146 170 175 233 382 394 568 442 79 20 233 13 329 -16 299
-88 474 -360 456 -708 -14 -262 -194 -523 -588 -854 -328 -276 -609 -460 -980
-643 -736 -363 -1567 -527 -2410 -476 -1209 74 -2209 653 -2875 1665 -291 442
-508 976 -620 1525 -105 516 -112 1120 -19 1675 189 1138 746 2058 1625 2686
579 414 1327 670 2124 729 174 12 586 5 755 -15z"/>
<path d="M26220 13439 c-457 -39 -885 -185 -1233 -421 -493 -334 -852 -877
-1016 -1539 -58 -234 -98 -529 -72 -529 7 0 131 27 274 59 620 141 1163 259
2177 471 893 187 1546 331 2108 465 12 3 22 11 22 18 0 23 -100 240 -156 341
-329 586 -846 984 -1437 1106 -189 39 -429 49 -667 29z m477 -309 c298 -40
565 -149 804 -331 110 -83 284 -252 369 -359 82 -103 183 -261 173 -271 -13
-12 -957 -217 -2383 -519 -480 -102 -1294 -278 -1364 -296 -29 -7 -29 -7 -22
31 15 77 76 273 119 380 254 633 709 1065 1329 1264 154 49 329 81 568 104 83
8 335 6 407 -3z"/>
</g>
</svg>
